# xmcd
#
# Track frame offsets: 
#        150
#        15417
#        26421
#        41071
#        52571
#        66589
#        77924
#        91401
#        100760
#        113248
#        127903
#        142718
#        155746
#        168035
#        175780
#
# Disc length: 2508 seconds
#
# Revision: 3
# Processed by: cddbd v1.5.2PL0 Copyright (c) Steve Scherf et al.
# Submitted via: ExactAudioCopy v0.99pb4
#
DISCID=af09ca0f
DTITLE=Johnny Cash - The Universal Masters Collection
DYEAR=2003
DGENRE=Country
TTITLE0=The Night Hank Williams Came To Town
TTITLE1=Cry, Cry, Cry
TTITLE2=Long Black Veil
TTITLE3=I Walk The Line
TTITLE4=Tennessee Flat Top Box
TTITLE5=Get Rhythm
TTITLE6=I Still Miss Someone
TTITLE7=Blue Train
TTITLE8=Folsom Prison Blues
TTITLE9=Home Of The Blues
TTITLE10=Cat's In The Cradle
TTITLE11=Wanted Man
TTITLE12=Ring Of Fire
TTITLE13=Guess Things Happen That Way
TTITLE14=Sixteen Tons
EXTD=(c)2003 Universal International Music B.V.\nupc 602498104194\n
EXTT0=
EXTT1=
EXTT2=
EXTT3=
EXTT4=
EXTT5=
EXTT6=
EXTT7=
EXTT8=
EXTT9=
EXTT10=
EXTT11=
EXTT12=
EXTT13=
EXTT14=
PLAYORDER=
